<svg xmlns="http://www.w3.org/2000/svg" viewBox="0 0 1500 420" role="img" aria-labelledby="title desc">
  <title id="title">Atlas Management</title>
  <desc id="desc">Atlas Management brand lockup derived from the Atlas logo mark.</desc>
  <defs>
    <linearGradient id="mark-ring" x1="70" y1="318" x2="322" y2="66" gradientUnits="userSpaceOnUse">
      <stop stop-color="#06b6d4"/>
      <stop offset=".52" stop-color="#0ea5c6"/>
      <stop offset="1" stop-color="#07152f"/>
    </linearGradient>
    <linearGradient id="mark-a" x1="130" y1="315" x2="276" y2="112" gradientUnits="userSpaceOnUse">
      <stop stop-color="#0b1b35"/>
      <stop offset="1" stop-color="#07152f"/>
    </linearGradient>
  </defs>

  <rect width="1500" height="420" rx="24" fill="#05070c"/>

  <g transform="translate(58 48)">
    <rect width="324" height="324" rx="58" fill="#f8fbff"/>
    <path d="M93.2 85.1a127.6 127.6 0 0 1 137.6 0" fill="none" stroke="url(#mark-ring)" stroke-width="24.3" stroke-linecap="round"/>
    <path d="M238.9 93.2a127.6 127.6 0 0 1 0 137.6" fill="none" stroke="url(#mark-ring)" stroke-width="24.3" stroke-linecap="round"/>
    <path d="M230.8 238.9a127.6 127.6 0 0 1-137.6 0" fill="none" stroke="url(#mark-ring)" stroke-width="24.3" stroke-linecap="round"/>
    <path d="M85.1 230.8a127.6 127.6 0 0 1 0-137.6" fill="none" stroke="url(#mark-ring)" stroke-width="24.3" stroke-linecap="round"/>
    <path d="M162 24.3 177.7 73h-31.4L162 24.3Z" fill="#07152f"/>
    <path d="M299.7 162 251 177.7v-31.4l48.7 15.7Z" fill="#07152f"/>
    <path d="M162 299.7 146.3 251h31.4L162 299.7Z" fill="#07152f"/>
    <path d="M24.3 162 73 146.3v31.4L24.3 162Z" fill="#07152f"/>
    <circle cx="162" cy="79.5" r="22.3" fill="#06a9cf" stroke="#f8fbff" stroke-width="10.1"/>
    <circle cx="244.4" cy="162" r="22.3" fill="#06a9cf" stroke="#f8fbff" stroke-width="10.1"/>
    <circle cx="162" cy="244.4" r="22.3" fill="#06a9cf" stroke="#f8fbff" stroke-width="10.1"/>
    <circle cx="79.5" cy="162" r="22.3" fill="#06a9cf" stroke="#f8fbff" stroke-width="10.1"/>
    <path d="M85.1 221.7 161.5 86.1 239 221.7h-46.6L162 164.5l-30.9 57.2h-46Z" fill="url(#mark-a)"/>
    <path d="M140.2 230.8 162 188.3l21.8 42.5h-43.6Z" fill="#06b6d4"/>
  </g>

  <text x="460" y="184" fill="#f8fafc" font-family="Arial, sans-serif" font-size="78" font-weight="700" letter-spacing="12">ATLAS</text>
  <text x="796" y="184" fill="#07d9ec" font-family="Arial, sans-serif" font-size="78" font-weight="700" letter-spacing="12">MANAGEMENT</text>
  <text x="466" y="246" fill="#67e8f9" font-family="Arial, sans-serif" font-size="22" font-weight="700" letter-spacing="5">SERVICE PORTAL. OPERATIONS HOME. CONTROL DESK.</text>
</svg>
